<?xml version="1.0" encoding="UTF-8" standalone="no"?>
<!DOCTYPE svg PUBLIC "-//W3C//DTD SVG 1.1//EN" "http://www.w3.org/Graphics/SVG/1.1/DTD/svg11.dtd">
<svg xmlns="http://www.w3.org/2000/svg" version="1.1" viewBox="0.00 0.00 1448.00 1448.00">
<path fill="#84437e" d="
  M 751.89 696.24
  A 0.23 0.23 0.0 0 0 751.81 695.87
  Q 736.96 689.79 722.07 682.93
  Q 718.79 681.42 716.38 678.81
  A 0.56 0.56 0.0 0 1 716.62 677.89
  Q 718.77 677.22 720.61 677.27
  Q 732.55 677.64 742.38 677.02
  Q 755.31 676.20 763.00 677.40
  C 774.85 679.26 786.53 684.49 794.27 693.54
  Q 797.53 697.36 799.86 703.29
  Q 805.76 718.36 803.29 732.70
  C 801.03 745.79 796.81 757.19 788.41 767.54
  C 775.59 783.36 757.99 795.07 737.97 800.18
  Q 714.11 806.26 690.81 803.22
  Q 654.92 798.55 626.82 776.72
  Q 622.47 773.35 627.48 775.63
  Q 631.08 777.27 634.80 778.96
  C 649.62 785.68 664.34 788.16 680.43 788.12
  Q 721.62 788.01 752.96 761.80
  Q 756.29 759.01 758.71 755.45
  A 0.91 0.91 0.0 0 0 758.33 754.10
  Q 757.71 753.82 757.05 753.96
  Q 751.29 755.22 745.64 755.44
  C 725.61 756.25 703.39 751.31 685.65 740.74
  Q 650.06 719.55 635.32 682.05
  Q 631.76 672.99 628.35 658.85
  Q 626.23 650.01 625.79 639.70
  C 625.28 627.51 625.94 614.07 628.92 602.56
  C 632.53 588.62 637.15 574.95 645.23 563.27
  Q 650.20 556.07 655.69 549.83
  C 661.74 542.96 669.22 537.43 676.11 531.28
  A 0.54 0.54 0.0 0 0 675.81 530.35
  Q 671.89 529.91 668.37 530.58
  C 663.88 531.44 659.27 532.20 654.88 533.59
  C 634.13 540.14 615.29 550.64 600.39 566.73
  Q 590.83 577.05 584.65 587.38
  Q 580.64 594.06 577.10 601.19
  Q 576.19 603.02 576.62 601.02
  Q 579.89 586.12 586.86 573.34
  Q 614.66 522.37 667.98 502.95
  C 682.63 497.62 699.71 494.75 715.28 495.59
  Q 733.12 496.56 750.91 500.12
  A 1.22 1.17 32.7 0 0 751.82 499.94
  Q 752.71 499.36 752.38 498.43
  Q 750.56 493.29 747.63 489.89
  Q 734.03 474.09 713.81 467.55
  Q 705.41 464.84 695.63 462.56
  Q 693.95 462.17 695.48 461.36
  Q 695.93 461.12 696.45 461.04
  C 724.65 456.61 753.47 460.78 775.16 478.66
  C 784.38 486.26 791.88 495.72 796.22 506.60
  Q 798.77 512.99 800.95 520.96
  Q 801.61 523.38 803.81 524.76
  Q 812.94 530.48 815.71 540.68
  C 817.23 546.24 818.51 551.20 823.86 554.26
  Q 833.87 559.98 843.77 560.84
  C 851.77 561.54 858.02 567.92 857.96 575.75
  C 857.85 589.58 848.84 602.57 838.14 610.18
  Q 827.39 617.84 815.19 619.81
  Q 814.03 620.00 814.94 619.25
  C 822.35 613.19 832.94 611.22 834.89 600.30
  C 836.16 593.13 831.23 588.00 825.29 585.11
  C 818.96 582.03 811.86 578.79 804.91 578.04
  Q 792.99 576.75 783.69 578.89
  C 777.67 580.28 772.13 583.17 766.24 585.19
  C 754.14 589.34 739.81 587.51 732.89 575.67
  Q 727.26 566.03 729.24 554.84
  A 1.55 1.54 -86.2 0 0 727.66 553.03
  Q 714.53 553.60 705.58 563.05
  Q 695.61 573.57 695.35 590.01
  Q 695.17 601.40 700.67 609.84
  Q 709.61 623.55 724.48 627.05
  C 737.21 630.05 750.15 629.82 763.22 630.12
  Q 768.84 630.25 780.99 631.95
  Q 795.21 633.93 807.61 640.05
  C 812.66 642.54 817.46 646.17 821.99 649.49
  Q 836.51 660.12 843.70 678.10
  Q 854.18 704.33 848.94 732.50
  Q 842.26 768.37 812.09 788.81
  Q 806.05 792.90 796.26 797.80
  Q 783.97 803.96 771.68 806.47
  Q 768.49 807.12 771.37 805.60
  C 776.93 802.65 781.91 800.32 787.21 796.68
  Q 797.72 789.45 804.34 782.20
  Q 814.95 770.58 822.39 754.27
  Q 827.31 743.49 828.40 732.74
  C 829.49 722.11 829.08 710.35 826.12 699.75
  C 822.98 688.57 814.38 676.83 806.07 669.59
  C 786.22 652.31 755.66 651.17 730.58 654.65
  C 703.42 658.42 680.70 643.42 670.17 618.98
  A 0.44 0.44 0.0 0 0 669.40 618.91
  C 667.34 622.00 667.28 629.65 667.34 633.58
  Q 667.74 658.37 682.00 677.77
  Q 688.10 686.06 697.90 691.44
  Q 717.21 702.03 738.25 700.19
  C 741.47 699.90 749.81 698.50 751.89 696.24
  Z
  M 756.17 533.38
  A 3.93 3.81 35.8 0 0 756.48 535.12
  C 758.76 540.54 762.32 546.80 766.52 550.71
  C 774.28 557.93 786.55 561.52 796.80 557.95
  A 1.54 1.53 -24.5 0 0 797.63 555.74
  Q 794.46 550.22 790.96 545.73
  C 783.04 535.58 770.54 533.05 757.23 532.45
  Q 756.21 532.41 756.17 533.38
  Z
  M 829.9525 577.2933
  A 1.79 0.82 29.2 0 0 828.7900 575.7042
  A 1.79 0.82 29.2 0 0 826.8275 575.5467
  A 1.79 0.82 29.2 0 0 827.9900 577.1358
  A 1.79 0.82 29.2 0 0 829.9525 577.2933
  Z"
/>
<path fill="#e9ece3" d="
  M 788.46 555.20
  L 774.55 549.58
  A 0.70 0.70 0.0 0 1 774.27 549.37
  L 768.35 542.18
  A 0.70 0.70 0.0 0 1 769.08 541.06
  L 782.72 544.87
  A 0.70 0.70 0.0 0 1 783.10 545.15
  L 789.30 554.15
  A 0.70 0.70 0.0 0 1 788.46 555.20
  Z"
/>
<path fill="#84437e" d="
  M 608.62 598.39
  Q 594.15 640.01 596.57 684.73
  Q 597.73 706.00 604.82 726.45
  Q 605.66 728.86 606.17 731.75
  Q 606.30 732.50 605.77 731.95
  Q 602.76 728.83 600.74 725.45
  C 583.93 697.45 574.50 667.21 577.59 635.29
  Q 580.15 608.90 596.46 587.80
  Q 607.76 573.18 624.68 560.69
  Q 627.65 558.50 631.05 556.70
  Q 631.60 556.41 631.36 556.98
  Q 630.56 558.87 629.56 560.34
  C 625.75 565.95 621.45 571.58 618.29 577.59
  Q 611.13 591.18 608.62 598.39
  Z"
/>
<path fill="#84437e" d="
  M 656.83 740.53
  C 668.88 750.35 681.54 759.50 696.85 763.55
  Q 701.75 764.84 706.32 765.94
  Q 709.03 766.60 706.31 767.23
  Q 695.79 769.68 682.87 770.13
  Q 671.53 770.53 663.14 768.53
  C 643.80 763.92 625.28 753.72 617.02 734.67
  C 611.38 721.63 608.28 708.60 608.10 694.19
  Q 607.91 679.76 608.98 665.93
  Q 609.28 662.14 610.32 658.38
  Q 610.62 657.29 610.96 658.36
  Q 612.45 663.01 613.57 667.84
  C 620.02 695.72 634.70 722.50 656.83 740.53
  Z"
/>
<ellipse fill="#84437e" cx="0.00" cy="0.00" transform="translate(458.13,864.72) rotate(48.5)" rx="12.01" ry="11.42"/>
<path fill="#84437e" d="
  M 612.74 916.88
  Q 615.43 923.49 620.78 928.31
  Q 633.11 939.43 650.05 937.77
  C 663.48 936.45 672.08 929.18 677.96 917.69
  Q 678.81 916.02 680.59 916.57
  L 681.99 916.99
  Q 683.39 917.42 682.87 918.78
  Q 676.27 936.18 659.21 941.66
  C 650.56 944.44 641.76 943.97 632.80 941.71
  C 626.15 940.03 620.62 935.07 615.92 930.58
  Q 606.22 921.32 604.40 908.35
  Q 602.41 894.24 606.11 882.00
  Q 609.82 869.70 621.10 861.18
  C 631.51 853.33 642.96 851.58 655.71 854.27
  C 668.04 856.88 678.22 866.86 681.97 878.39
  Q 682.48 879.96 682.40 881.57
  A 1.02 1.01 4.4 0 1 681.29 882.52
  Q 678.61 882.27 677.34 879.77
  Q 675.41 876.00 673.19 872.72
  C 663.44 858.39 644.95 854.20 629.60 862.25
  C 621.48 866.50 616.03 871.70 612.52 880.06
  Q 605.01 897.96 612.74 916.88
  Z"
/>
<path fill="#84437e" d="
  M 387.11 890.18
  Q 390.98 889.61 394.09 887.58
  Q 405.50 880.14 411.69 870.47
  Q 416.12 863.55 420.49 856.09
  Q 421.60 854.20 423.71 854.09
  Q 434.18 853.57 443.72 854.07
  Q 444.19 854.09 443.93 854.49
  Q 430.23 875.82 412.65 894.55
  C 411.26 896.03 412.36 897.78 413.27 899.17
  C 422.52 913.19 432.81 926.02 442.98 938.91
  Q 444.34 940.64 444.99 942.77
  A 0.60 0.59 77.3 0 1 444.52 943.53
  C 436.76 944.77 427.30 944.58 421.20 939.23
  Q 417.40 935.89 414.09 930.40
  C 410.19 923.95 406.44 917.09 401.34 911.73
  Q 398.20 908.43 394.64 911.77
  C 389.03 917.05 385.48 920.73 385.76 929.02
  Q 386.01 936.17 385.41 942.55
  A 1.45 1.44 -0.5 0 1 384.13 943.85
  Q 376.90 944.63 370.00 943.87
  A 1.85 1.85 0.0 0 1 368.37 942.26
  Q 367.82 937.66 367.80 932.75
  Q 367.65 894.88 368.03 857.15
  Q 368.05 854.61 370.58 854.43
  Q 377.79 853.92 384.80 854.54
  A 1.29 1.29 0.0 0 1 385.96 855.62
  Q 386.40 858.39 386.40 860.89
  Q 386.41 875.55 386.22 889.41
  A 0.77 0.77 0.0 0 0 387.11 890.18
  Z"
/>
<ellipse fill="#84437e" cx="0.00" cy="0.00" transform="translate(939.08,861.63) rotate(87.2)" rx="3.85" ry="3.02"/>
<path fill="#84437e" d="
  M 902.25 886.90
  Q 902.04 887.36 902.04 887.89
  Q 901.91 910.32 902.09 929.66
  C 902.19 939.46 913.13 940.80 919.51 936.45
  Q 921.75 934.92 924.00 936.26
  Q 924.59 936.61 924.61 937.30
  C 924.70 940.16 921.84 941.64 919.56 942.60
  Q 909.42 946.84 902.28 940.78
  C 897.66 936.86 896.70 931.62 896.60 925.75
  Q 896.31 906.94 896.69 887.43
  A 1.34 1.34 0.0 0 0 895.33 886.06
  Q 891.74 886.11 888.15 885.36
  C 886.76 885.08 886.26 883.76 886.50 882.46
  Q 886.76 881.12 888.13 881.07
  L 895.46 880.83
  A 1.29 1.29 0.0 0 0 896.71 879.55
  L 896.79 861.85
  Q 896.80 859.49 899.14 859.84
  L 899.70 859.93
  Q 901.12 860.14 901.32 861.57
  C 902.11 867.39 901.77 873.54 901.95 879.44
  A 1.52 1.52 0.0 0 0 903.47 880.91
  L 919.98 880.87
  Q 921.11 880.86 921.11 881.98
  L 921.11 884.95
  A 1.31 1.30 -89.8 0 1 919.80 886.26
  L 903.28 886.25
  A 1.14 1.14 0.0 0 0 902.25 886.90
  Z"
/>
<path fill="#84437e" d="
  M 549.90 919.15
  Q 549.53 919.70 549.63 920.31
  C 551.25 930.00 565.86 929.74 573.09 928.06
  C 576.30 927.31 578.99 925.30 581.02 922.73
  A 0.65 0.65 0.0 0 1 582.05 922.75
  Q 585.16 927.06 586.98 931.96
  Q 587.65 933.77 586.50 935.27
  C 582.48 940.53 574.49 941.98 568.41 942.86
  Q 558.66 944.26 549.01 940.91
  C 545.58 939.71 542.66 936.95 539.96 934.51
  C 535.73 930.70 532.82 925.40 531.93 919.72
  C 531.47 916.81 530.70 914.04 530.78 911.06
  C 531.13 896.77 537.15 886.28 551.30 881.24
  C 564.07 876.70 579.54 881.08 587.01 892.22
  Q 594.00 902.64 592.81 915.02
  A 2.45 2.45 0.0 0 1 590.59 917.22
  Q 585.96 917.63 581.77 917.67
  Q 566.66 917.78 551.22 918.42
  A 1.67 1.65 15.7 0 0 549.90 919.15
  Z
  M 550.00 905.10
  L 573.44 904.53
  A 0.14 0.14 0.0 0 0 573.57 904.39
  L 573.57 904.30
  A 11.71 8.87 -1.4 0 0 561.65 895.72
  L 561.35 895.73
  A 11.71 8.87 -1.4 0 0 549.86 904.88
  L 549.86 904.97
  A 0.14 0.14 0.0 0 0 550.00 905.10
  Z"
/>
<path fill="#84437e" d="
  M 747.49 912.93
  Q 746.06 915.30 746.71 918.71
  C 748.99 930.81 757.36 937.84 769.45 939.09
  Q 780.71 940.25 789.82 932.94
  C 792.28 930.96 793.82 928.19 795.40 925.51
  C 796.23 924.11 797.76 923.50 799.32 923.84
  Q 799.86 923.96 799.79 924.50
  Q 799.49 926.84 798.56 928.79
  Q 792.34 941.88 778.77 943.88
  C 770.18 945.15 760.40 944.18 753.52 938.72
  C 742.91 930.31 740.22 919.72 741.37 906.90
  Q 742.83 890.64 757.13 882.80
  Q 765.44 878.24 774.67 879.62
  Q 799.57 883.35 800.89 909.32
  Q 801.03 912.14 798.31 912.13
  Q 774.86 912.04 750.93 911.99
  Q 749.59 911.99 748.26 912.35
  Q 747.76 912.49 747.49 912.93
  Z
  M 747.06 907.76
  L 794.96 907.76
  A 0.10 0.10 0.0 0 0 795.06 907.66
  L 795.06 907.48
  A 23.91 22.98 0.0 0 0 771.15 884.50
  L 770.87 884.50
  A 23.91 22.98 -0.0 0 0 746.96 907.48
  L 746.96 907.66
  A 0.10 0.10 0.0 0 0 747.06 907.76
  Z"
/>
<path fill="#84437e" d="
  M 508.62 926.94
  A 2.03 2.02 42.3 0 0 508.49 924.27
  Q 506.58 922.32 503.61 921.50
  Q 496.60 919.57 490.28 917.57
  Q 486.40 916.35 481.63 912.71
  Q 476.40 908.71 475.92 902.61
  C 475.00 890.90 483.00 881.96 494.20 880.14
  Q 506.33 878.18 516.95 883.47
  C 522.31 886.14 525.72 890.83 526.98 896.57
  C 528.45 903.27 513.08 901.48 510.05 900.99
  A 1.85 1.83 -7.8 0 1 508.70 899.98
  C 505.96 894.34 496.85 892.93 494.62 899.81
  Q 494.26 900.93 495.12 901.73
  Q 496.31 902.83 497.97 903.21
  C 504.87 904.80 511.51 906.41 517.81 909.24
  C 524.76 912.36 528.22 920.94 526.75 927.84
  Q 525.13 935.51 518.53 939.56
  Q 502.61 949.32 486.80 941.83
  C 479.77 938.50 473.01 931.69 473.65 923.25
  Q 473.69 922.68 474.17 922.39
  Q 475.32 921.69 476.67 921.55
  Q 482.72 920.91 488.84 921.28
  C 490.13 921.36 491.15 922.18 491.49 923.44
  Q 493.52 930.94 502.15 930.22
  Q 506.28 929.87 508.62 926.94
  Z"
/>
<path fill="#84437e" d="
  M 1026.67 913.59
  Q 1025.66 921.20 1030.47 928.63
  C 1036.40 937.80 1046.64 941.05 1057.10 939.19
  C 1064.45 937.88 1070.33 933.00 1074.14 926.20
  Q 1075.18 924.34 1077.22 924.98
  Q 1077.44 925.05 1077.66 925.16
  Q 1079.48 926.13 1078.69 928.03
  Q 1074.71 937.61 1065.85 941.67
  C 1053.18 947.47 1036.38 945.41 1027.50 933.85
  C 1022.65 927.52 1019.28 919.41 1019.97 911.13
  C 1020.79 901.36 1023.55 891.25 1031.66 885.71
  Q 1037.95 881.41 1044.30 880.12
  C 1062.45 876.43 1082.93 890.95 1079.78 910.75
  A 1.68 1.68 0.0 0 1 1078.13 912.16
  L 1027.85 912.55
  A 1.20 1.19 -86.1 0 0 1026.67 913.59
  Z
  M 1026.88 907.83
  L 1074.50 907.25
  A 0.17 0.17 0.0 0 0 1074.66 907.08
  L 1074.66 906.92
  A 23.38 22.19 -0.7 0 0 1051.01 885.01
  L 1049.81 885.03
  A 23.38 22.19 -0.7 0 0 1026.71 907.50
  L 1026.71 907.66
  A 0.17 0.17 0.0 0 0 1026.88 907.83
  Z"
/>
<path fill="#84437e" d="
  M 868.26 890.80
  Q 868.72 887.63 868.48 883.87
  Q 868.36 881.88 870.35 881.99
  L 871.31 882.04
  Q 873.22 882.15 873.22 884.06
  L 872.98 939.56
  Q 872.97 942.10 870.44 942.26
  L 869.20 942.34
  Q 867.17 942.46 867.62 940.48
  C 868.25 937.76 869.23 933.76 868.50 931.07
  Q 868.29 930.28 867.69 930.84
  C 864.99 933.41 862.92 936.72 859.92 938.86
  C 858.33 940.00 856.78 941.28 854.91 941.91
  Q 843.31 945.80 831.57 942.50
  C 819.53 939.11 811.99 926.36 811.47 914.75
  C 810.93 902.64 814.66 889.17 826.48 883.59
  C 836.03 879.08 849.33 878.21 858.38 884.19
  Q 862.38 886.84 866.72 891.30
  Q 868.00 892.61 868.26 890.80
  Z
  M 842.1834 939.1596
  A 27.38 25.82 89.7 0 0 867.8596 911.6448
  A 27.38 25.82 89.7 0 0 841.8966 884.4004
  A 27.38 25.82 89.7 0 0 816.2204 911.9152
  A 27.38 25.82 89.7 0 0 842.1834 939.1596
  Z"
/>
<path fill="#84437e" d="
  M 704.22 890.50
  Q 705.04 890.64 705.64 889.98
  Q 714.64 880.25 727.39 880.31
  C 730.16 880.33 734.47 881.21 736.10 883.78
  A 1.46 1.46 0.0 0 1 735.34 885.93
  Q 733.78 886.46 731.98 886.14
  Q 718.41 883.69 709.49 893.09
  Q 703.81 899.08 703.79 908.08
  Q 703.77 923.45 703.87 938.01
  Q 703.88 939.51 703.48 940.90
  Q 703.31 941.50 702.68 941.57
  L 699.82 941.90
  Q 698.70 942.03 698.53 940.92
  Q 698.35 939.69 698.33 938.44
  Q 698.03 920.11 698.41 900.85
  C 698.51 895.27 698.23 890.03 697.96 884.51
  Q 697.85 882.34 700.00 882.02
  L 701.59 881.78
  Q 703.71 881.46 703.65 883.60
  L 703.48 889.61
  Q 703.46 890.38 704.22 890.50
  Z"
/>
<path fill="#84437e" d="
  M 983.45 935.46
  Q 984.07 935.08 984.40 934.43
  Q 997.05 910.09 1005.43 886.04
  C 1006.36 883.37 1009.28 878.66 1012.71 881.46
  A 1.88 1.88 0.0 0 1 1013.21 883.73
  Q 1006.90 896.92 1001.42 910.34
  Q 999.84 914.22 997.57 918.55
  C 993.77 925.81 991.12 933.70 987.68 940.72
  C 986.08 943.98 980.57 943.05 979.23 940.53
  Q 978.10 938.41 977.14 936.15
  Q 971.23 922.10 965.41 907.61
  C 962.02 899.15 958.23 891.09 954.87 882.71
  Q 954.34 881.39 955.76 881.47
  L 958.23 881.62
  Q 959.88 881.72 960.73 883.13
  Q 963.25 887.32 965.08 892.20
  Q 973.05 913.47 982.49 935.16
  A 0.67 0.67 0.0 0 0 983.45 935.46
  Z"
/>
<rect fill="#84437e" x="-8.62" y="-31.10" transform="translate(457.63,912.67) rotate(0.3)" width="17.24" height="62.20" rx="1.60"/>
<path fill="#84437e" d="
  M 936.28 941.51
  L 935.87 883.60
  A 1.91 1.91 0.0 0 1 937.71 881.68
  L 939.74 881.60
  A 1.91 1.91 0.0 0 1 941.72 883.52
  L 941.48 940.63
  A 1.91 1.91 0.0 0 1 940.59 942.24
  L 939.20 943.11
  A 1.91 1.91 0.0 0 1 936.28 941.51
  Z"
/>
</svg>
